# xmcd
#
# Track frame offsets:
#	150
#	17752
#	37355
#	53022
#	68022
#	87872
#	103335
#	119407
#	133107
#	144697
#	159997
#	178200
#	192387
#	209297
#
# Disc length: 3008 seconds
#
# Revision: 1
# Processed by: cddbd v1.5.2PL0 Copyright (c) Steve Scherf et al.
# Submitted via: audiograbber 1.83.01
#
DISCID=d20bbe0e
DTITLE=Acoustic Rainbow - Acoustic Rainbow 13
DYEAR=2002
DGENRE=
TTITLE0=Love Songs - Ann Robson
TTITLE1=The Green Eye Of The Little Yellow God - Sean Tyrrell
TTITLE2=The Secret - Oho
TTITLE3=Summerfly - Storefront Congregration
TTITLE4=Boogie Woggie Yodel - Tomi Fujiyama
TTITLE5=Little Marthe Stewart - Stephen Bennett
TTITLE6=One Person - Leslie Ritter And Scott Petito
TTITLE7=There Are So Many Fish In The Sea - Stan Rubens
TTITLE8=Good Night Stars - Katrina Bishop
TTITLE9=World Of Love - Greg Klyma
TTITLE10=Strait To All Right - Krazy House
TTITLE11=Distant Trains - Dave Wright
TTITLE12=Once Upon A Time - Shakeh
TTITLE13=Black Eyed Susie - Jack Cooper
EXTD=
EXTT0=
EXTT1=
EXTT2=
EXTT3=
EXTT4=
EXTT5=
EXTT6=
EXTT7=
EXTT8=
EXTT9=
EXTT10=
EXTT11=
EXTT12=
EXTT13=
PLAYORDER=
